<svg width="32" height="32" viewBox="0 0 32 32" fill="none" xmlns="http://www.w3.org/2000/svg">
<rect width="32" height="32" fill="#192438"/>
<rect x="1" y="1" width="30" height="30" rx="4" fill="#00D492"/>
<path d="M4.81666 22V19.48H5.62666C6.16666 19.48 6.59866 19.33 6.92266 19.03C7.25866 18.718 7.42666 18.31 7.42666 17.806V8.59H10.2167V17.68C10.2167 18.544 10.0307 19.3 9.65866 19.948C9.28666 20.596 8.75266 21.1 8.05666 21.46C7.37266 21.82 6.56266 22 5.62666 22H4.81666ZM12.5474 22V8.59H15.2474L20.2694 15.25H19.0094L23.8874 8.59H26.5874V22H23.7974V11.668L24.9134 11.92L19.7474 18.58H19.3874L14.4014 11.92L15.3374 11.668V22H12.5474Z" fill="#192438"/>
</svg>
