<svg width="33" height="33" viewBox="0 0 33 33" fill="none" xmlns="http://www.w3.org/2000/svg">
<rect x="1.94482" y="1.94482" width="30.6434" height="30.6434" rx="4.06983" fill="#FED7AA"/>
<rect x="1.26668" y="1.26656" width="29.2868" height="29.2868" rx="3.39152" fill="#FED7AA" stroke="#4B5563" stroke-width="1.35661"/>
<path d="M9.3906 19.4104C8.56768 19.4104 7.82342 19.2652 7.15782 18.9748C6.50432 18.6843 5.99 18.2668 5.61484 17.7222C5.23969 17.1777 5.05211 16.5363 5.05211 15.7981C5.05211 15.3382 5.14893 15.0356 5.34255 14.8904C5.54828 14.7331 5.85083 14.6544 6.25019 14.6544C6.55273 14.6544 6.81897 14.7089 7.0489 14.8178C7.27884 14.9146 7.39986 15.1082 7.41196 15.3987C7.43616 15.6891 7.49667 15.9856 7.59348 16.2882C7.7024 16.5907 7.88998 16.8449 8.15622 17.0506C8.42246 17.2442 8.80366 17.341 9.29983 17.341C9.91702 17.341 10.389 17.1716 10.7157 16.8328C11.0546 16.4818 11.224 15.9493 11.224 15.2353V8.10132H9.35429C9.12436 8.10132 8.94283 7.99846 8.80971 7.79273C8.68869 7.587 8.62819 7.33891 8.62819 7.04847C8.62819 6.80643 8.68264 6.5765 8.79156 6.35867C8.91258 6.14084 9.10015 6.03192 9.35429 6.03192H12.5492C12.8033 6.03192 13.0393 6.09848 13.2571 6.2316C13.4749 6.35262 13.5839 6.54019 13.5839 6.79433V15.2353C13.5839 16.2519 13.3902 17.0687 13.003 17.6859C12.6278 18.291 12.1256 18.7327 11.4963 19.0111C10.867 19.2773 10.1651 19.4104 9.3906 19.4104Z" fill="#4B5563"/>
<path d="M17.3163 24.4581C17.0259 24.4581 16.7536 24.3976 16.4994 24.2766C16.2574 24.1435 16.1364 23.9499 16.1364 23.6957V12.3685C16.1364 11.9328 16.2574 11.6303 16.4994 11.4608C16.7536 11.2793 17.0259 11.1885 17.3163 11.1885C17.6067 11.1885 17.8488 11.2188 18.0424 11.2793C18.2481 11.3398 18.4357 11.4608 18.6051 11.6424C18.7867 11.8239 18.9742 12.0901 19.1679 12.4411L21.4006 16.5073L23.6153 12.4411C23.8331 12.0901 24.0207 11.8239 24.178 11.6424C24.3474 11.4608 24.535 11.3398 24.7407 11.2793C24.9465 11.2188 25.1885 11.1885 25.4668 11.1885C25.7694 11.1885 26.0417 11.2793 26.2837 11.4608C26.5257 11.6303 26.6468 11.9328 26.6468 12.3685V23.6957C26.6468 23.9499 26.5197 24.1435 26.2656 24.2766C26.0235 24.3976 25.7573 24.4581 25.4668 24.4581C25.1764 24.4581 24.9041 24.3976 24.65 24.2766C24.4079 24.1435 24.2869 23.9499 24.2869 23.6957V15.9082L22.1812 19.684C22.0723 19.8534 21.9452 19.9805 21.8 20.0652C21.6548 20.1378 21.5096 20.1741 21.3643 20.1741C21.2312 20.1741 21.0921 20.1378 20.9468 20.0652C20.8137 19.9926 20.6927 19.8655 20.5838 19.684L18.4962 15.7812V23.6957C18.4962 23.9499 18.3752 24.1435 18.1332 24.2766C17.8911 24.3976 17.6188 24.4581 17.3163 24.4581Z" fill="#4B5563"/>
</svg>
