<svg width="48" height="48" viewBox="0 0 48 48" fill="none" xmlns="http://www.w3.org/2000/svg">
<rect x="2.82324" y="2.82349" width="45.1765" height="45.1765" rx="6" fill="#FED7AA"/>
<rect x="0.5" y="0.5" width="44.1765" height="44.1765" rx="5.5" stroke="#4B5563"/>
<path d="M12.4617 27.1525C11.3436 27.1525 10.344 26.9576 9.4631 26.568C8.58216 26.1614 7.89604 25.5939 7.40475 24.8654C6.91345 24.1369 6.6678 23.2814 6.6678 22.2988C6.6678 21.7906 6.77792 21.4518 6.99816 21.2824C7.23533 21.096 7.57416 21.0028 8.01463 21.0028C8.37039 21.0028 8.67533 21.0706 8.92945 21.2061C9.20051 21.3247 9.34451 21.5534 9.36145 21.8922C9.37839 22.3835 9.48851 22.8494 9.6918 23.2899C9.8951 23.7304 10.217 24.0861 10.6575 24.3572C11.0979 24.6282 11.6655 24.7638 12.36 24.7638C13.3257 24.7638 14.0711 24.5012 14.5963 23.976C15.1384 23.4339 15.4095 22.6038 15.4095 21.4856V10.8127H12.4363C12.1483 10.8127 11.928 10.6941 11.7756 10.4569C11.6231 10.2028 11.5469 9.91482 11.5469 9.59294C11.5469 9.32188 11.6146 9.05929 11.7502 8.80517C11.8857 8.55106 12.1144 8.424 12.4363 8.424H16.8833C17.2052 8.424 17.4847 8.50023 17.7219 8.6527C17.976 8.80517 18.1031 9.02541 18.1031 9.31341V21.4856C18.1031 22.8579 17.849 23.9591 17.3407 24.7892C16.8325 25.6193 16.1549 26.2207 15.3078 26.5934C14.4607 26.9661 13.512 27.1525 12.4617 27.1525Z" fill="#4B5563"/>
<path d="M25.4779 37.1177C25.139 37.1177 24.8256 37.0414 24.5376 36.889C24.2666 36.7365 24.131 36.5163 24.131 36.2283V19.8885C24.131 19.3803 24.2666 19.033 24.5376 18.8466C24.8256 18.6433 25.139 18.5417 25.4779 18.5417C25.7998 18.5417 26.0793 18.5925 26.3165 18.6941C26.5536 18.7789 26.7739 18.9313 26.9772 19.1516C27.1805 19.3718 27.3922 19.6767 27.6125 20.0664L31.1701 26.8005L34.7786 20.0664C34.9988 19.6767 35.2021 19.3718 35.3885 19.1516C35.5918 18.9313 35.812 18.7789 36.0492 18.6941C36.2863 18.5925 36.5659 18.5417 36.8878 18.5417C37.2435 18.5417 37.5569 18.6433 37.828 18.8466C38.0991 19.033 38.2346 19.3803 38.2346 19.8885V36.2283C38.2346 36.5163 38.0906 36.7365 37.8026 36.889C37.5315 37.0414 37.2266 37.1177 36.8878 37.1177C36.5489 37.1177 36.2355 37.0414 35.9475 36.889C35.6765 36.7365 35.5409 36.5163 35.5409 36.2283V24.0306L32.1358 30.3327C32.0002 30.553 31.8478 30.7139 31.6783 30.8156C31.5089 30.9003 31.331 30.9426 31.1447 30.9426C30.9922 30.9426 30.8313 30.9003 30.6619 30.8156C30.4925 30.7309 30.3485 30.5699 30.2299 30.3327L26.8247 23.8781V36.2283C26.8247 36.5163 26.6807 36.7365 26.3927 36.889C26.1216 37.0414 25.8167 37.1177 25.4779 37.1177Z" fill="#4B5563"/>
</svg>
